<mxfile host="app.diagrams.net" modified="2022-07-14T18:43:55.839Z" agent="5.0 (Macintosh; Intel Mac OS X 10_15_7) AppleWebKit/537.36 (KHTML, like Gecko) Chrome/103.0.0.0 Safari/537.36" etag="tjNeo_cPXLrSEBSekEeE" version="20.1.1" type="github">
  <diagram name="Page-1" id="03018318-947c-dd8e-b7a3-06fadd420f32">
    <mxGraphModel dx="1131" dy="684" grid="1" gridSize="10" guides="1" tooltips="1" connect="1" arrows="1" fold="1" page="1" pageScale="1" pageWidth="1169" pageHeight="827" background="none" math="0" shadow="0">
      <root>
        <mxCell id="0" />
        <mxCell id="1" parent="0" />
        <mxCell id="677b7b8949515195-1" value="W" style="whiteSpace=wrap;html=1;rounded=0;shadow=0;labelBackgroundColor=none;strokeColor=#000000;strokeWidth=1;fillColor=none;fontFamily=Verdana;fontSize=12;fontColor=#000000;align=center;comic=1;" parent="1" vertex="1">
          <mxGeometry x="20" y="20" width="1060" height="810" as="geometry" />
        </mxCell>
        <mxCell id="677b7b8949515195-3" value="Search" style="strokeWidth=1;shadow=0;dashed=0;align=center;html=1;shape=mxgraph.mockup.forms.searchBox;strokeColor=#999999;mainText=;strokeColor2=#008cff;fontColor=#666666;fontSize=17;align=left;spacingLeft=3;rounded=0;labelBackgroundColor=none;comic=1;" parent="1" vertex="1">
          <mxGeometry x="845" y="199" width="220" height="30" as="geometry" />
        </mxCell>
        <mxCell id="677b7b8949515195-2" value="Daily Tracker" style="whiteSpace=wrap;html=1;rounded=0;shadow=0;labelBackgroundColor=none;strokeWidth=1;fontFamily=Verdana;fontSize=28;align=center;comic=1;" parent="1" vertex="1">
          <mxGeometry x="35" y="30" width="275" height="50" as="geometry" />
        </mxCell>
        <mxCell id="677b7b8949515195-9" value="" style="line;strokeWidth=1;html=1;rounded=0;shadow=0;labelBackgroundColor=none;fillColor=none;fontFamily=Verdana;fontSize=14;fontColor=#000000;align=center;comic=1;" parent="1" vertex="1">
          <mxGeometry x="20" y="140" width="1060" height="10" as="geometry" />
        </mxCell>
        <mxCell id="677b7b8949515195-25" value="" style="whiteSpace=wrap;html=1;rounded=0;shadow=0;labelBackgroundColor=none;strokeWidth=1;fillColor=none;fontFamily=Verdana;fontSize=12;align=center;comic=1;" parent="1" vertex="1">
          <mxGeometry x="840" y="179" width="230" height="400" as="geometry" />
        </mxCell>
        <mxCell id="677b7b8949515195-26" value="" style="whiteSpace=wrap;html=1;rounded=0;shadow=0;labelBackgroundColor=none;strokeWidth=1;fillColor=none;fontFamily=Verdana;fontSize=12;align=center;comic=1;" parent="1" vertex="1">
          <mxGeometry x="840" y="610" width="230" height="200" as="geometry" />
        </mxCell>
        <mxCell id="677b7b8949515195-42" value="Tokyo, JP" style="text;html=1;points=[];align=left;verticalAlign=top;spacingTop=-4;fontSize=14;fontFamily=Verdana" parent="1" vertex="1">
          <mxGeometry x="850" y="339" width="170" height="20" as="geometry" />
        </mxCell>
        <mxCell id="mFOHRpYWV3SNSm5y7IDZ-2" value="&lt;font style=&quot;font-size: 14px;&quot;&gt;Thursday, 14 July 2022&lt;/font&gt;" style="whiteSpace=wrap;html=1;rounded=0;shadow=0;labelBackgroundColor=none;strokeWidth=1;fontFamily=Verdana;fontSize=28;align=center;comic=1;" vertex="1" parent="1">
          <mxGeometry x="35" y="80" width="190" height="30" as="geometry" />
        </mxCell>
        <mxCell id="mFOHRpYWV3SNSm5y7IDZ-3" value="London, UK" style="text;html=1;points=[];align=left;verticalAlign=top;spacingTop=-4;fontSize=14;fontFamily=Verdana" vertex="1" parent="1">
          <mxGeometry x="850" y="309" width="170" height="20" as="geometry" />
        </mxCell>
        <mxCell id="mFOHRpYWV3SNSm5y7IDZ-4" value="Berlin, DE" style="text;html=1;points=[];align=left;verticalAlign=top;spacingTop=-4;fontSize=14;fontFamily=Verdana" vertex="1" parent="1">
          <mxGeometry x="850" y="279" width="170" height="20" as="geometry" />
        </mxCell>
        <mxCell id="mFOHRpYWV3SNSm5y7IDZ-5" value="Washington, DC, US" style="text;html=1;points=[];align=left;verticalAlign=top;spacingTop=-4;fontSize=14;fontFamily=Verdana;fontColor=#FF3333;" vertex="1" parent="1">
          <mxGeometry x="850" y="249" width="170" height="20" as="geometry" />
        </mxCell>
        <mxCell id="mFOHRpYWV3SNSm5y7IDZ-14" value="information about the NASA APOD image" style="label;whiteSpace=wrap;html=1;image=img/clipart/Gear_128x128.png;fontSize=14;" vertex="1" parent="1">
          <mxGeometry x="850" y="620" width="210" height="180" as="geometry" />
        </mxCell>
        <mxCell id="mFOHRpYWV3SNSm5y7IDZ-54" value="" style="html=1;shadow=0;dashed=0;shape=mxgraph.bootstrap.rrect;rSize=5;strokeColor=#DFDFDF;html=1;whiteSpace=wrap;fillColor=#FFFFFF;fontColor=#000000;fontSize=14;" vertex="1" parent="1">
          <mxGeometry x="100" y="209" width="560" height="120" as="geometry" />
        </mxCell>
        <mxCell id="mFOHRpYWV3SNSm5y7IDZ-55" value="" style="html=1;shadow=0;dashed=0;shape=mxgraph.bootstrap.topButton;strokeColor=inherit;fillColor=#F7F7F7;rSize=5;perimeter=none;whiteSpace=wrap;resizeWidth=1;align=left;spacing=10;fontSize=14;" vertex="1" parent="mFOHRpYWV3SNSm5y7IDZ-54">
          <mxGeometry width="560" height="30" relative="1" as="geometry" />
        </mxCell>
        <mxCell id="mFOHRpYWV3SNSm5y7IDZ-56" value="" style="strokeColor=inherit;fillColor=inherit;gradientColor=inherit;fontColor=inherit;html=1;shadow=0;dashed=0;perimeter=none;whiteSpace=wrap;resizeWidth=1;align=left;spacing=10;fontSize=14;" vertex="1" parent="mFOHRpYWV3SNSm5y7IDZ-54">
          <mxGeometry width="560" height="30" relative="1" as="geometry">
            <mxPoint y="30" as="offset" />
          </mxGeometry>
        </mxCell>
        <mxCell id="mFOHRpYWV3SNSm5y7IDZ-57" value="Placeholder: &quot;Enter your task here&quot;" style="strokeColor=inherit;fillColor=inherit;gradientColor=inherit;fontColor=inherit;html=1;shadow=0;dashed=0;perimeter=none;whiteSpace=wrap;resizeWidth=1;align=left;spacing=10;fontSize=14;" vertex="1" parent="mFOHRpYWV3SNSm5y7IDZ-54">
          <mxGeometry width="560" height="30" relative="1" as="geometry">
            <mxPoint y="60" as="offset" />
          </mxGeometry>
        </mxCell>
        <mxCell id="mFOHRpYWV3SNSm5y7IDZ-58" value="" style="strokeColor=inherit;fillColor=inherit;gradientColor=inherit;fontColor=inherit;html=1;shadow=0;dashed=0;shape=mxgraph.bootstrap.bottomButton;rSize=5;perimeter=none;whiteSpace=wrap;resizeWidth=1;resizeHeight=0;align=left;spacing=10;fontSize=14;" vertex="1" parent="mFOHRpYWV3SNSm5y7IDZ-54">
          <mxGeometry y="1" width="560" height="30" relative="1" as="geometry">
            <mxPoint y="-30" as="offset" />
          </mxGeometry>
        </mxCell>
        <mxCell id="mFOHRpYWV3SNSm5y7IDZ-82" value="" style="shape=mxgraph.signs.nature.snowflake;html=1;pointerEvents=1;fillColor=#000000;strokeColor=none;verticalLabelPosition=bottom;verticalAlign=top;align=center;sketch=0;fontSize=14;" vertex="1" parent="mFOHRpYWV3SNSm5y7IDZ-54">
          <mxGeometry x="500" y="51" width="60" height="50" as="geometry" />
        </mxCell>
        <mxCell id="mFOHRpYWV3SNSm5y7IDZ-59" value="" style="html=1;shadow=0;dashed=0;shape=mxgraph.bootstrap.rrect;rSize=5;strokeColor=#DFDFDF;html=1;whiteSpace=wrap;fillColor=#FFFFFF;fontColor=#000000;fontSize=14;" vertex="1" parent="1">
          <mxGeometry x="100" y="329" width="560" height="149" as="geometry" />
        </mxCell>
        <mxCell id="mFOHRpYWV3SNSm5y7IDZ-60" value="" style="html=1;shadow=0;dashed=0;shape=mxgraph.bootstrap.topButton;strokeColor=inherit;fillColor=#F7F7F7;rSize=5;perimeter=none;whiteSpace=wrap;resizeWidth=1;align=left;spacing=10;fontSize=14;" vertex="1" parent="mFOHRpYWV3SNSm5y7IDZ-59">
          <mxGeometry width="560" height="30" relative="1" as="geometry" />
        </mxCell>
        <mxCell id="mFOHRpYWV3SNSm5y7IDZ-61" value="" style="strokeColor=inherit;fillColor=inherit;gradientColor=inherit;fontColor=inherit;html=1;shadow=0;dashed=0;perimeter=none;whiteSpace=wrap;resizeWidth=1;align=left;spacing=10;fontSize=14;" vertex="1" parent="mFOHRpYWV3SNSm5y7IDZ-59">
          <mxGeometry width="560" height="30" relative="1" as="geometry">
            <mxPoint y="30" as="offset" />
          </mxGeometry>
        </mxCell>
        <mxCell id="mFOHRpYWV3SNSm5y7IDZ-62" value="" style="strokeColor=inherit;fillColor=inherit;gradientColor=inherit;fontColor=inherit;html=1;shadow=0;dashed=0;perimeter=none;whiteSpace=wrap;resizeWidth=1;align=left;spacing=10;fontSize=14;" vertex="1" parent="mFOHRpYWV3SNSm5y7IDZ-59">
          <mxGeometry width="560" height="30" relative="1" as="geometry">
            <mxPoint y="60" as="offset" />
          </mxGeometry>
        </mxCell>
        <mxCell id="mFOHRpYWV3SNSm5y7IDZ-63" value="" style="strokeColor=inherit;fillColor=inherit;gradientColor=inherit;fontColor=inherit;html=1;shadow=0;dashed=0;shape=mxgraph.bootstrap.bottomButton;rSize=5;perimeter=none;whiteSpace=wrap;resizeWidth=1;resizeHeight=0;align=left;spacing=10;fontSize=14;" vertex="1" parent="mFOHRpYWV3SNSm5y7IDZ-59">
          <mxGeometry y="1" width="560" height="30" relative="1" as="geometry">
            <mxPoint y="-30" as="offset" />
          </mxGeometry>
        </mxCell>
        <mxCell id="mFOHRpYWV3SNSm5y7IDZ-84" value="" style="shape=mxgraph.signs.nature.sun_4;html=1;pointerEvents=1;fillColor=#000000;strokeColor=none;verticalLabelPosition=bottom;verticalAlign=top;align=center;sketch=0;fontSize=14;" vertex="1" parent="mFOHRpYWV3SNSm5y7IDZ-59">
          <mxGeometry x="480" width="80" height="79" as="geometry" />
        </mxCell>
        <mxCell id="mFOHRpYWV3SNSm5y7IDZ-64" value="" style="html=1;shadow=0;dashed=0;shape=mxgraph.bootstrap.rrect;rSize=5;strokeColor=#DFDFDF;html=1;whiteSpace=wrap;fillColor=#FFFFFF;fontColor=#000000;fontSize=14;" vertex="1" parent="1">
          <mxGeometry x="100" y="449" width="560" height="151" as="geometry" />
        </mxCell>
        <mxCell id="mFOHRpYWV3SNSm5y7IDZ-65" value="" style="html=1;shadow=0;dashed=0;shape=mxgraph.bootstrap.topButton;strokeColor=inherit;fillColor=#F7F7F7;rSize=5;perimeter=none;whiteSpace=wrap;resizeWidth=1;align=left;spacing=10;fontSize=14;" vertex="1" parent="mFOHRpYWV3SNSm5y7IDZ-64">
          <mxGeometry width="560" height="30" relative="1" as="geometry" />
        </mxCell>
        <mxCell id="mFOHRpYWV3SNSm5y7IDZ-66" value="" style="strokeColor=inherit;fillColor=inherit;gradientColor=inherit;fontColor=inherit;html=1;shadow=0;dashed=0;perimeter=none;whiteSpace=wrap;resizeWidth=1;align=left;spacing=10;fontSize=14;" vertex="1" parent="mFOHRpYWV3SNSm5y7IDZ-64">
          <mxGeometry width="560" height="30" relative="1" as="geometry">
            <mxPoint y="30" as="offset" />
          </mxGeometry>
        </mxCell>
        <mxCell id="mFOHRpYWV3SNSm5y7IDZ-67" value="" style="strokeColor=inherit;fillColor=inherit;gradientColor=inherit;fontColor=inherit;html=1;shadow=0;dashed=0;perimeter=none;whiteSpace=wrap;resizeWidth=1;align=left;spacing=10;fontSize=14;" vertex="1" parent="mFOHRpYWV3SNSm5y7IDZ-64">
          <mxGeometry width="560" height="30" relative="1" as="geometry">
            <mxPoint y="60" as="offset" />
          </mxGeometry>
        </mxCell>
        <mxCell id="mFOHRpYWV3SNSm5y7IDZ-68" value="" style="strokeColor=inherit;fillColor=inherit;gradientColor=inherit;fontColor=inherit;html=1;shadow=0;dashed=0;shape=mxgraph.bootstrap.bottomButton;rSize=5;perimeter=none;whiteSpace=wrap;resizeWidth=1;resizeHeight=0;align=left;spacing=10;fontSize=14;" vertex="1" parent="mFOHRpYWV3SNSm5y7IDZ-64">
          <mxGeometry y="1" width="560" height="30" relative="1" as="geometry">
            <mxPoint y="-30" as="offset" />
          </mxGeometry>
        </mxCell>
        <mxCell id="mFOHRpYWV3SNSm5y7IDZ-85" value="" style="shape=mxgraph.signs.nature.tsunami;html=1;pointerEvents=1;fillColor=#000000;strokeColor=none;verticalLabelPosition=bottom;verticalAlign=top;align=center;sketch=0;fontSize=14;" vertex="1" parent="mFOHRpYWV3SNSm5y7IDZ-64">
          <mxGeometry x="470" y="-24" width="80" height="69" as="geometry" />
        </mxCell>
        <mxCell id="mFOHRpYWV3SNSm5y7IDZ-86" value="" style="shape=mxgraph.signs.nature.moon;html=1;pointerEvents=1;fillColor=#000000;strokeColor=none;verticalLabelPosition=bottom;verticalAlign=top;align=center;sketch=0;fontSize=14;" vertex="1" parent="mFOHRpYWV3SNSm5y7IDZ-64">
          <mxGeometry x="490" y="81" width="60" height="70" as="geometry" />
        </mxCell>
        <mxCell id="mFOHRpYWV3SNSm5y7IDZ-69" value="" style="html=1;shadow=0;dashed=0;shape=mxgraph.bootstrap.rrect;rSize=5;strokeColor=#DFDFDF;html=1;whiteSpace=wrap;fillColor=#FFFFFF;fontColor=#000000;fontSize=14;" vertex="1" parent="1">
          <mxGeometry x="100" y="569" width="560" height="120" as="geometry" />
        </mxCell>
        <mxCell id="mFOHRpYWV3SNSm5y7IDZ-71" value="" style="strokeColor=inherit;fillColor=inherit;gradientColor=inherit;fontColor=inherit;html=1;shadow=0;dashed=0;perimeter=none;whiteSpace=wrap;resizeWidth=1;align=left;spacing=10;fontSize=14;" vertex="1" parent="mFOHRpYWV3SNSm5y7IDZ-69">
          <mxGeometry width="560" height="30" relative="1" as="geometry">
            <mxPoint y="30" as="offset" />
          </mxGeometry>
        </mxCell>
        <mxCell id="mFOHRpYWV3SNSm5y7IDZ-70" value="" style="html=1;shadow=0;dashed=0;shape=mxgraph.bootstrap.topButton;strokeColor=inherit;fillColor=#F7F7F7;rSize=5;perimeter=none;whiteSpace=wrap;resizeWidth=1;align=left;spacing=10;fontSize=14;" vertex="1" parent="mFOHRpYWV3SNSm5y7IDZ-69">
          <mxGeometry width="560" height="30" relative="1" as="geometry" />
        </mxCell>
        <mxCell id="mFOHRpYWV3SNSm5y7IDZ-72" value="" style="strokeColor=inherit;fillColor=inherit;gradientColor=inherit;fontColor=inherit;html=1;shadow=0;dashed=0;perimeter=none;whiteSpace=wrap;resizeWidth=1;align=left;spacing=10;fontSize=14;" vertex="1" parent="mFOHRpYWV3SNSm5y7IDZ-69">
          <mxGeometry width="560" height="30" relative="1" as="geometry">
            <mxPoint y="60" as="offset" />
          </mxGeometry>
        </mxCell>
        <mxCell id="mFOHRpYWV3SNSm5y7IDZ-73" value="" style="strokeColor=inherit;fillColor=inherit;gradientColor=inherit;fontColor=inherit;html=1;shadow=0;dashed=0;shape=mxgraph.bootstrap.bottomButton;rSize=5;perimeter=none;whiteSpace=wrap;resizeWidth=1;resizeHeight=0;align=left;spacing=10;fontSize=14;" vertex="1" parent="mFOHRpYWV3SNSm5y7IDZ-69">
          <mxGeometry y="1" width="560" height="30" relative="1" as="geometry">
            <mxPoint y="-30" as="offset" />
          </mxGeometry>
        </mxCell>
        <mxCell id="mFOHRpYWV3SNSm5y7IDZ-74" value="Background image from NASA APOD API" style="text;html=1;strokeColor=none;fillColor=none;align=center;verticalAlign=middle;whiteSpace=wrap;rounded=0;fontSize=14;" vertex="1" parent="1">
          <mxGeometry x="380" y="60" width="330" height="30" as="geometry" />
        </mxCell>
        <mxCell id="mFOHRpYWV3SNSm5y7IDZ-75" value="" style="shape=mxgraph.signs.nature.sun_4;html=1;pointerEvents=1;fillColor=#000000;strokeColor=none;verticalLabelPosition=bottom;verticalAlign=top;align=center;sketch=0;fontSize=14;" vertex="1" parent="1">
          <mxGeometry x="940" y="30" width="74" height="70" as="geometry" />
        </mxCell>
        <mxCell id="mFOHRpYWV3SNSm5y7IDZ-76" value="Current temp @ location" style="text;html=1;strokeColor=none;fillColor=none;align=center;verticalAlign=middle;whiteSpace=wrap;rounded=0;fontSize=14;" vertex="1" parent="1">
          <mxGeometry x="902" y="100" width="150" height="30" as="geometry" />
        </mxCell>
        <mxCell id="mFOHRpYWV3SNSm5y7IDZ-77" value="&lt;h1&gt;Today&#39;s schedule&lt;/h1&gt;" style="text;html=1;strokeColor=none;fillColor=none;spacing=5;spacingTop=-20;whiteSpace=wrap;overflow=hidden;rounded=0;fontSize=14;" vertex="1" parent="1">
          <mxGeometry x="35" y="159" width="260" height="50" as="geometry" />
        </mxCell>
        <mxCell id="mFOHRpYWV3SNSm5y7IDZ-78" value="" style="rounded=0;whiteSpace=wrap;html=1;fontSize=14;" vertex="1" parent="1">
          <mxGeometry x="35" y="209" width="47.5" height="480" as="geometry" />
        </mxCell>
        <mxCell id="mFOHRpYWV3SNSm5y7IDZ-79" value="" style="rounded=0;whiteSpace=wrap;html=1;fontSize=14;" vertex="1" parent="1">
          <mxGeometry x="668.5" y="209" width="47.5" height="480" as="geometry" />
        </mxCell>
        <mxCell id="mFOHRpYWV3SNSm5y7IDZ-80" value="Time" style="text;html=1;strokeColor=none;fillColor=none;align=center;verticalAlign=middle;whiteSpace=wrap;rounded=0;fontSize=14;rotation=90;" vertex="1" parent="1">
          <mxGeometry x="30" y="380" width="60" height="1" as="geometry" />
        </mxCell>
        <mxCell id="mFOHRpYWV3SNSm5y7IDZ-81" value="Save buttons&lt;br&gt;" style="text;html=1;strokeColor=none;fillColor=none;align=center;verticalAlign=middle;whiteSpace=wrap;rounded=0;fontSize=14;rotation=90;" vertex="1" parent="1">
          <mxGeometry x="657" y="360.5" width="70.5" height="40" as="geometry" />
        </mxCell>
        <mxCell id="mFOHRpYWV3SNSm5y7IDZ-87" value="&lt;h1 style=&quot;font-size: 15px;&quot;&gt;About the image&lt;/h1&gt;" style="text;html=1;strokeColor=none;fillColor=none;spacing=5;spacingTop=-20;whiteSpace=wrap;overflow=hidden;rounded=0;fontSize=15;" vertex="1" parent="1">
          <mxGeometry x="840" y="599" width="128" height="21" as="geometry" />
        </mxCell>
        <mxCell id="mFOHRpYWV3SNSm5y7IDZ-88" value="" style="shape=mxgraph.signs.nature.sun_4;html=1;pointerEvents=1;fillColor=#000000;strokeColor=none;verticalLabelPosition=bottom;verticalAlign=top;align=center;sketch=0;fontSize=14;" vertex="1" parent="1">
          <mxGeometry x="918" y="381" width="92" height="79" as="geometry" />
        </mxCell>
        <mxCell id="mFOHRpYWV3SNSm5y7IDZ-89" value="Weather for current or selected location" style="text;html=1;strokeColor=none;fillColor=none;align=center;verticalAlign=middle;whiteSpace=wrap;rounded=0;fontSize=14;fontColor=#FF3333;" vertex="1" parent="1">
          <mxGeometry x="889" y="490" width="150" height="30" as="geometry" />
        </mxCell>
        <mxCell id="mFOHRpYWV3SNSm5y7IDZ-90" value="icons change per hour and location" style="text;html=1;strokeColor=none;fillColor=none;align=center;verticalAlign=middle;whiteSpace=wrap;rounded=0;fontSize=15;" vertex="1" parent="1">
          <mxGeometry x="590" y="169" width="70" height="91" as="geometry" />
        </mxCell>
        <mxCell id="mFOHRpYWV3SNSm5y7IDZ-93" value="Footer information" style="whiteSpace=wrap;html=1;rounded=0;shadow=0;labelBackgroundColor=none;strokeWidth=1;fontFamily=Verdana;fontSize=28;align=center;comic=1;" vertex="1" parent="1">
          <mxGeometry x="35" y="740" width="685" height="60" as="geometry" />
        </mxCell>
      </root>
    </mxGraphModel>
  </diagram>
</mxfile>
